solid unit_001
  facet normal 0.0 0.0 -1.0
    outer loop
      vertex 0.0 0.0 0.0
      vertex 0.0 2.0 0.0
      vertex 2.0 0.0 0.0
    endloop
  endfacet
  facet normal 0.0 -1.0 0.0
    outer loop
      vertex 0.0 0.0 0.0
      vertex 2.0 0.0 0.0
      vertex 0.0 0.0 2.0
    endloop
  endfacet
  facet normal -1.0 0.0 0.0
    outer loop
      vertex 0.0 0.0 0.0
      vertex 0.0 0.0 2.0
      vertex 0.0 2.0 0.0
    endloop
  endfacet
  facet normal 0.5773502691896258 0.5773502691896258 0.5773502691896258
    outer loop
      vertex 2.0 0.0 0.0
      vertex 0.0 2.0 0.0
      vertex 0.0 0.0 2.0
    endloop
  endfacet
endsolid unit_001
