solid supplier_020
  facet normal 0.000000 0.000000 -1.000000
    outer loop
      vertex 20.000000 0.000000 0.000000
      vertex 20.000000 1.000000 0.000000
      vertex 21.000000 0.000000 0.000000
    endloop
  endfacet
  facet normal 0.000000 -1.000000 0.000000
    outer loop
      vertex 20.000000 0.000000 0.000000
      vertex 21.000000 0.000000 0.000000
      vertex 20.000000 0.000000 1.000000
    endloop
  endfacet
  facet normal -1.000000 0.000000 0.000000
    outer loop
      vertex 20.000000 0.000000 0.000000
      vertex 20.000000 0.000000 1.000000
      vertex 20.000000 1.000000 0.000000
    endloop
  endfacet
  facet normal 0.577350 0.577350 0.577350
    outer loop
      vertex 21.000000 0.000000 0.000000
      vertex 20.000000 1.000000 0.000000
      vertex 20.000000 0.000000 1.000000
    endloop
  endfacet
endsolid supplier_020
