solid supplier_010
  facet normal 0.000000 0.000000 -1.000000
    outer loop
      vertex 10.000000 0.000000 0.000000
      vertex 10.000000 1.250000 0.000000
      vertex 11.250000 0.000000 0.000000
    endloop
  endfacet
  facet normal 0.000000 -1.000000 0.000000
    outer loop
      vertex 10.000000 0.000000 0.000000
      vertex 11.250000 0.000000 0.000000
      vertex 10.000000 0.000000 1.250000
    endloop
  endfacet
  facet normal -1.000000 0.000000 0.000000
    outer loop
      vertex 10.000000 0.000000 0.000000
      vertex 10.000000 0.000000 1.250000
      vertex 10.000000 1.250000 0.000000
    endloop
  endfacet
  facet normal 0.577350 0.577350 0.577350
    outer loop
      vertex 11.250000 0.000000 0.000000
      vertex 10.000000 1.250000 0.000000
      vertex 10.000000 0.000000 1.250000
    endloop
  endfacet
endsolid supplier_010
