solid supplier_006
  facet normal 0.000000 0.000000 -1.000000
    outer loop
      vertex 6.000000 0.000000 0.000000
      vertex 6.000000 2.000000 0.000000
      vertex 8.000000 0.000000 0.000000
    endloop
  endfacet
  facet normal 0.000000 -1.000000 0.000000
    outer loop
      vertex 6.000000 0.000000 0.000000
      vertex 8.000000 0.000000 0.000000
      vertex 6.000000 0.000000 2.000000
    endloop
  endfacet
  facet normal -1.000000 0.000000 0.000000
    outer loop
      vertex 6.000000 0.000000 0.000000
      vertex 6.000000 0.000000 2.000000
      vertex 6.000000 2.000000 0.000000
    endloop
  endfacet
  facet normal 0.577350 0.577350 0.577350
    outer loop
      vertex 8.000000 0.000000 0.000000
      vertex 6.000000 2.000000 0.000000
      vertex 6.000000 0.000000 2.000000
    endloop
  endfacet
endsolid supplier_006
