solid supplier_012
  facet normal 0.000000 0.000000 -1.000000
    outer loop
      vertex 12.000000 0.000000 0.000000
      vertex 12.000000 1.000000 0.000000
      vertex 13.000000 0.000000 0.000000
    endloop
  endfacet
  facet normal 0.000000 -1.000000 0.000000
    outer loop
      vertex 12.000000 0.000000 0.000000
      vertex 13.000000 0.000000 0.000000
      vertex 12.000000 0.000000 1.000000
    endloop
  endfacet
  facet normal -1.000000 0.000000 0.000000
    outer loop
      vertex 12.000000 0.000000 0.000000
      vertex 12.000000 0.000000 1.000000
      vertex 12.000000 1.000000 0.000000
    endloop
  endfacet
  facet normal 0.577350 0.577350 0.577350
    outer loop
      vertex 13.000000 0.000000 0.000000
      vertex 12.000000 1.000000 0.000000
      vertex 12.000000 0.000000 1.000000
    endloop
  endfacet
endsolid supplier_012
