solid supplier_013
  facet normal 0.000000 0.000000 -1.000000
    outer loop
      vertex 0.000000 12.000000 0.000000
      vertex 0.000000 14.000000 0.000000
      vertex 2.000000 12.000000 0.000000
    endloop
  endfacet
  facet normal 0.000000 -1.000000 0.000000
    outer loop
      vertex 0.000000 12.000000 0.000000
      vertex 2.000000 12.000000 0.000000
      vertex 0.000000 12.000000 2.000000
    endloop
  endfacet
  facet normal -1.000000 0.000000 0.000000
    outer loop
      vertex 0.000000 12.000000 0.000000
      vertex 0.000000 12.000000 2.000000
      vertex 0.000000 14.000000 0.000000
    endloop
  endfacet
endsolid supplier_013
