solid supplier_003
  facet normal 0.000000 0.000000 -1.000000
    outer loop
      vertex 0.000000 2.000000 0.000000
      vertex 0.000000 3.500000 0.000000
      vertex 1.500000 2.000000 0.000000
    endloop
  endfacet
  facet normal 0.000000 -1.000000 0.000000
    outer loop
      vertex 0.000000 2.000000 0.000000
      vertex 1.500000 2.000000 0.000000
      vertex 0.000000 2.000000 1.500000
    endloop
  endfacet
  facet normal -1.000000 0.000000 0.000000
    outer loop
      vertex 0.000000 2.000000 0.000000
      vertex 0.000000 2.000000 1.500000
      vertex 0.000000 3.500000 0.000000
    endloop
  endfacet
  facet normal 0.577350 0.577350 0.577350
    outer loop
      vertex 1.500000 2.000000 0.000000
      vertex 0.000000 3.500000 0.000000
      vertex 0.000000 2.000000 1.500000
    endloop
  endfacet
endsolid supplier_003
