solid binary_003
  facet normal 0.0 0.0 -1.0
    outer loop
      vertex 0.0 0.0 0.0
      vertex 0.0 1.5 0.0
      vertex 1.5 0.0 0.0
    endloop
  endfacet
  facet normal 0.0 -1.0 0.0
    outer loop
      vertex 0.0 0.0 0.0
      vertex 1.5 0.0 0.0
      vertex 0.0 0.0 1.5
    endloop
  endfacet
  facet normal -1.0 0.0 0.0
    outer loop
      vertex 0.0 0.0 0.0
      vertex 0.0 0.0 1.5
      vertex 0.0 1.5 0.0
    endloop
  endfacet
  facet normal 0.5773502691896258 0.5773502691896258 0.5773502691896258
    outer loop
      vertex 1.5 0.0 0.0
      vertex 0.0 1.5 0.0
      vertex 0.0 0.0 1.5
    endloop
  endfacet
endsolid binary_003
