solid binary_010
  facet normal 0.0 0.0 -1.0
    outer loop
      vertex 0.0 0.0 0.0
      vertex 0.0 1.25 0.0
      vertex 1.25 0.0 0.0
    endloop
  endfacet
  facet normal 0.0 -1.0 0.0
    outer loop
      vertex 0.0 0.0 0.0
      vertex 1.25 0.0 0.0
      vertex 0.0 0.0 1.25
    endloop
  endfacet
  facet normal -1.0 0.0 0.0
    outer loop
      vertex 0.0 0.0 0.0
      vertex 0.0 0.0 1.25
      vertex 0.0 1.25 0.0
    endloop
  endfacet
  facet normal 0.5773502691896258 0.5773502691896258 0.5773502691896258
    outer loop
      vertex 1.25 0.0 0.0
      vertex 0.0 1.25 0.0
      vertex 0.0 0.0 1.25
    endloop
  endfacet
endsolid binary_010
